<?xml version="1.0" encoding="UTF-8"?>
<svg id="Layer_2" xmlns="http://www.w3.org/2000/svg" viewBox="0 0 546.39 896.03">
  <defs>
    <style>
      .cls-1 {
        fill: #19ff00;
      }

      .cls-2 {
        fill: #3e3e3e;
      }

      .cls-3 {
        fill: #2a252c;
      }
    </style>
  </defs>
  <g id="Layer_1-2" data-name="Layer_1">
    <path class="cls-1" d="M332.18,94.38c-2.79,5.99-7.74,8.31-14.15,8.28-14.99-.06-29.98-.02-44.97-.02v-.03c-14.99,0-29.98.05-44.96-.01-7.58-.04-12-2.85-14.2-8.73-2.64-7.03-1.15-14.17,3.87-18.88,2.85-2.68,6.26-3.51,10.08-3.5,16.82.06,33.64.03,50.46.03,13.16,0,26.32-.03,39.47,0,12.73.04,19.8,11.27,14.4,22.86Z"/>
    <path class="cls-3" d="M0,0v896.03h546.39V0H0ZM421.91,841.29c-3.29.62-6.62.71-9.96.71-92.5.02-185-.1-277.5.14-28.99.07-49.96-22.85-49.96-50.1-.02-229.32-.02-458.65,0-687.98,0-14.04,4.15-26.54,14.26-36.7,8.13-8.17,18.21-12.02,29.47-13.16,2.97-.3,5.99-.34,8.98-.34,91.51-.02,183.01-.03,274.51,0,12.88.01,24.75,3.22,34.51,12.14,10.88,9.94,15.57,22.66,15.67,37.08.19,26.5.06,53,.06,79.5v265c0,114.99.01,229.99,0,344.99,0,23.98-16.81,44.39-40.03,48.72Z"/>
    <g>
      <path class="cls-2" d="M486.34,267.67c.06-2.08-.97-2.86-3.02-3.05-4.24-.37-4.24-.48-4.24-4.87,0-51.33,0-102.66-.03-153.99-.01-3.5-.05-7.03-.51-10.48-3.07-23.1-13.73-41.13-35.15-51.78-10.21-5.08-21.17-6.79-32.47-6.79-90.83,0-181.67-.01-272.51,0-2.66,0-5.34-.05-8,.1-18.76,1.06-35.08,7.46-47.43,22.17-10.98,13.08-15.59,28.48-15.66,45.32-.11,28.33-.05,56.66,0,85,0,2.59.07,4.76-3.56,4.18-2.9-.47-3.75,1.07-3.7,3.79.11,6.5,0,13,.04,19.5.03,4.03.09,4.23,4.13,4.29,2.44.04,3.15.8,3.1,3.17-.14,6-.11,12,0,18,.03,2.19-.35,3.28-2.97,3.32-4.2.07-4.24.3-4.25,4.63-.02,14.84-.02,29.67,0,44.5,0,4.23.05,4.39,4.36,4.59,2.17.1,2.93.78,2.85,2.92-.12,3.33-.18,6.67.02,10,.16,2.81-.28,4.52-3.71,4.02-2.42-.35-3.59.79-3.57,3.46.08,15.66.06,31.33.01,47-.01,2.2.55,3.34,3.01,3.53,4.21.32,4.21.46,4.21,4.85v209.5c0,68.84.04,137.67-.02,206.5-.03,38.3,29.1,68.59,68.16,68.28,73.5-.58,147-.17,220.51-.17,19.33,0,38.66.05,58-.04,15.75-.08,29.81-5.06,41.71-15.43,16.06-13.99,23.43-31.96,23.43-53.08.02-144.16,0-288.33.02-432.5,0-1.33.03-2.66,0-4-.04-1.38.46-1.99,1.97-2.2,5.28-.74,5.27-.81,5.28-6.24v-75c0-1-.03-2,0-3ZM461.95,182.58v265c0,114.99.01,229.99,0,344.99,0,23.98-16.81,44.39-40.03,48.72-3.29.62-6.62.71-9.96.71-92.5.02-185-.1-277.5.14-28.99.07-49.96-22.85-49.96-50.1-.02-229.32-.02-458.65,0-687.98,0-14.04,4.15-26.54,14.26-36.7,8.13-8.17,18.21-12.02,29.47-13.16,2.97-.3,5.99-.34,8.98-.34,91.51-.02,183.01-.03,274.51,0,12.88.01,24.75,3.22,34.51,12.14,10.88,9.94,15.57,22.66,15.67,37.08.19,26.5.06,53,.06,79.5Z"/>
      <path class="cls-2" d="M332.18,94.38c-2.79,5.99-7.74,8.31-14.15,8.28-14.99-.06-29.98-.02-44.97-.02v-.03c-14.99,0-29.98.05-44.96-.01-7.58-.04-12-2.85-14.2-8.73-2.64-7.03-1.15-14.17,3.87-18.88,2.85-2.68,6.26-3.51,10.08-3.5,16.82.06,33.64.03,50.46.03,13.16,0,26.32-.03,39.47,0,12.73.04,19.8,11.27,14.4,22.86Z"/>
    </g>
  </g>
</svg>